<svg width="22" height="22" viewBox="0 0 22 22" fill="none" xmlns="http://www.w3.org/2000/svg">
<path d="M1 5.66667C1 4.95942 1.26339 4.28115 1.73223 3.78105C2.20107 3.28095 2.83696 3 3.5 3V19C2.83696 19 2.20107 18.719 1.73223 18.219C1.26339 17.7189 1 17.0406 1 16.3333V5.66667ZM9.75 9C9.75 8.82319 9.81585 8.65362 9.93306 8.5286C10.0503 8.40357 10.2092 8.33333 10.375 8.33333H15.375C15.5408 8.33333 15.6997 8.40357 15.8169 8.5286C15.9342 8.65362 16 8.82319 16 9V10.3333C16 10.5101 15.9342 10.6797 15.8169 10.8047C15.6997 10.9298 15.5408 11 15.375 11H10.375C10.2092 11 10.0503 10.9298 9.93306 10.8047C9.81585 10.6797 9.75 10.5101 9.75 10.3333V9ZM4.75 19V3H18.5C19.163 3 19.7989 3.28095 20.2678 3.78105C20.7366 4.28115 21 4.95942 21 5.66667V16.3333C21 17.0406 20.7366 17.7189 20.2678 18.219C19.7989 18.719 19.163 19 18.5 19H4.75ZM10.375 7C9.87772 7 9.40081 7.21071 9.04917 7.58579C8.69754 7.96086 8.5 8.46957 8.5 9V10.3333C8.5 10.8638 8.69754 11.3725 9.04917 11.7475C9.40081 12.1226 9.87772 12.3333 10.375 12.3333H15.375C15.8723 12.3333 16.3492 12.1226 16.7008 11.7475C17.0525 11.3725 17.25 10.8638 17.25 10.3333V9C17.25 8.46957 17.0525 7.96086 16.7008 7.58579C16.3492 7.21071 15.8723 7 15.375 7H10.375Z" fill="white"/>
</svg>
