<svg width="22" height="22" viewBox="0 0 22 22" fill="none" xmlns="http://www.w3.org/2000/svg">
<path d="M6.07143 13.5455V12.1818H7.42857V13.5455H6.07143ZM2 6.72727C2 6.00396 2.28597 5.31026 2.795 4.7988C3.30402 4.28734 3.99441 4 4.71429 4H14.2143C14.9342 4 15.6245 4.28734 16.1336 4.7988C16.6426 5.31026 16.9286 6.00396 16.9286 6.72727V15.5909C16.9286 15.7717 17.0001 15.9452 17.1273 16.073C17.2546 16.2009 17.4272 16.2727 17.6071 16.2727C17.7871 16.2727 17.9597 16.2009 18.087 16.073C18.2142 15.9452 18.2857 15.7717 18.2857 15.5909V6.72727C19.0056 6.72727 19.696 7.01461 20.205 7.52607C20.714 8.03754 21 8.73123 21 9.45455V15.5909C21 16.4951 20.6425 17.3622 20.0063 18.0015C19.37 18.6408 18.507 19 17.6071 19H5.39286C4.49302 19 3.63003 18.6408 2.99374 18.0015C2.35746 17.3622 2 16.4951 2 15.5909V6.72727ZM5.39286 8.09091C5.21289 8.09091 5.04029 8.16274 4.91303 8.29061C4.78578 8.41847 4.71429 8.5919 4.71429 8.77273C4.71429 8.95356 4.78578 9.12698 4.91303 9.25485C5.04029 9.38271 5.21289 9.45455 5.39286 9.45455H13.5357C13.7157 9.45455 13.8883 9.38271 14.0155 9.25485C14.1428 9.12698 14.2143 8.95356 14.2143 8.77273C14.2143 8.5919 14.1428 8.41847 14.0155 8.29061C13.8883 8.16274 13.7157 8.09091 13.5357 8.09091H5.39286ZM5.39286 10.8182C5.21289 10.8182 5.04029 10.89 4.91303 11.0179C4.78578 11.1457 4.71429 11.3192 4.71429 11.5V14.2273C4.71429 14.4081 4.78578 14.5815 4.91303 14.7094C5.04029 14.8373 5.21289 14.9091 5.39286 14.9091H8.10714C8.28711 14.9091 8.45971 14.8373 8.58696 14.7094C8.71422 14.5815 8.78571 14.4081 8.78571 14.2273V11.5C8.78571 11.3192 8.71422 11.1457 8.58696 11.0179C8.45971 10.89 8.28711 10.8182 8.10714 10.8182H5.39286ZM10.8214 10.8182C10.6415 10.8182 10.4689 10.89 10.3416 11.0179C10.2143 11.1457 10.1429 11.3192 10.1429 11.5C10.1429 11.6808 10.2143 11.8543 10.3416 11.9821C10.4689 12.11 10.6415 12.1818 10.8214 12.1818H13.5357C13.7157 12.1818 13.8883 12.11 14.0155 11.9821C14.1428 11.8543 14.2143 11.6808 14.2143 11.5C14.2143 11.3192 14.1428 11.1457 14.0155 11.0179C13.8883 10.89 13.7157 10.8182 13.5357 10.8182H10.8214ZM10.8214 13.5455C10.6415 13.5455 10.4689 13.6173 10.3416 13.7452C10.2143 13.873 10.1429 14.0464 10.1429 14.2273C10.1429 14.4081 10.2143 14.5815 10.3416 14.7094C10.4689 14.8373 10.6415 14.9091 10.8214 14.9091H13.5357C13.7157 14.9091 13.8883 14.8373 14.0155 14.7094C14.1428 14.5815 14.2143 14.4081 14.2143 14.2273C14.2143 14.0464 14.1428 13.873 14.0155 13.7452C13.8883 13.6173 13.7157 13.5455 13.5357 13.5455H10.8214Z" fill="white"/>
</svg>
