<svg width="22" height="22" viewBox="0 0 22 22" fill="none" xmlns="http://www.w3.org/2000/svg">
<path d="M10.7017 2C12.9773 2 14.8333 3.82417 14.8333 6.07V10.4608H9.2374C8.83636 10.4608 8.51926 10.7725 8.51926 11.1667C8.51926 11.5517 8.83636 11.8725 9.2374 11.8725H14.8333V16.2542C14.8333 18.5 12.9773 20.3333 10.683 20.3333H6.14099C3.85598 20.3333 2 18.5092 2 16.2633V6.07917C2 3.82417 3.86531 2 6.15031 2H10.7017ZM17.1618 8.00435C17.4368 7.72018 17.886 7.72018 18.161 7.99518L20.8377 10.6627C20.9752 10.8002 21.0485 10.9744 21.0485 11.1669C21.0485 11.3502 20.9752 11.5335 20.8377 11.6619L18.161 14.3294C18.0235 14.4669 17.8402 14.5402 17.666 14.5402C17.4827 14.5402 17.2993 14.4669 17.1618 14.3294C16.8868 14.0544 16.8868 13.6052 17.1618 13.3302L18.6285 11.8727H14.8335V10.461H18.6285L17.1618 9.00352C16.8868 8.72852 16.8868 8.27935 17.1618 8.00435Z" fill="#FBFBFB"/>
</svg>
