<svg width="22" height="22" viewBox="0 0 22 22" fill="none" xmlns="http://www.w3.org/2000/svg">
<path d="M15.583 4.35417H14.6663V2.98834C14.6663 2.22751 14.043 1.60417 13.2822 1.60417H8.71717C7.95634 1.60417 7.33301 2.22751 7.33301 2.98834V4.35417H6.41634C5.40801 4.35417 4.58301 5.17917 4.58301 6.1875V6.30667C4.87634 6.22417 5.17884 6.1875 5.49967 6.1875H16.4997C16.8205 6.1875 17.123 6.22417 17.4163 6.30667V6.1875C17.4163 5.17917 16.5913 4.35417 15.583 4.35417Z" fill="white"/>
<path d="M12.7696 15.5192C12.4762 15.5192 12.2471 15.7575 12.2471 16.0417C12.2471 16.3258 12.4854 16.5642 12.7696 16.5642C13.0537 16.5642 13.2921 16.3258 13.2921 16.0417C13.2921 15.7575 13.0537 15.5192 12.7696 15.5192Z" fill="white"/>
<path d="M8.31449 16.3258C8.02116 16.3258 7.79199 16.5642 7.79199 16.8483C7.79199 17.1325 8.03033 17.3708 8.31449 17.3708C8.59866 17.3708 8.83699 17.1325 8.83699 16.8483C8.83699 16.5642 8.60783 16.3258 8.31449 16.3258Z" fill="white"/>
<path d="M17.4163 7.68167C17.123 7.59917 16.8205 7.5625 16.4997 7.5625H5.49967C5.17884 7.5625 4.87634 7.59917 4.58301 7.68167C3.00634 8.09417 1.83301 9.53333 1.83301 11.2292V16.7292C1.83301 18.7458 3.48301 20.3958 5.49967 20.3958H16.4997C18.5163 20.3958 20.1663 18.7458 20.1663 16.7292V11.2292C20.1663 9.53333 18.993 8.09417 17.4163 7.68167ZM14.6663 12.1733V16.0417C14.6663 17.0867 13.8138 17.9392 12.7688 17.9392C11.7238 17.9392 10.8713 17.0867 10.8713 16.0417C10.8713 14.9967 11.7238 14.1442 12.7688 14.1442C12.9522 14.1442 13.1263 14.1808 13.2913 14.2267V13.0717L10.2205 13.9058V16.8483C10.2205 16.8575 10.2205 16.8667 10.2113 16.8758C10.2022 17.9117 9.34967 18.755 8.31384 18.755C7.26884 18.755 6.41634 17.9025 6.41634 16.8483C6.41634 15.7942 7.26884 14.9508 8.31384 14.9508C8.49717 14.9508 8.67134 14.9875 8.84551 15.0333V13.3833V11.9625C8.84551 11.1742 9.34051 10.5325 10.0922 10.3308L12.5213 9.66167C13.3005 9.45083 13.7955 9.6525 14.0705 9.86333C14.3455 10.0742 14.6663 10.4867 14.6663 11.3025V12.1733Z" fill="white"/>
</svg>
