<svg width="22" height="22" viewBox="0 0 22 22" fill="none" xmlns="http://www.w3.org/2000/svg">
<path d="M10.3122 7.205H1.83301V14.8408C1.83301 14.8958 1.83301 14.9508 1.84217 14.9967H10.3122V7.205Z" fill="white"/>
<path d="M7.04883 5.83H10.3122V1.83333H7.07633V5.71999C7.07633 5.75666 7.05799 5.79333 7.04883 5.83Z" fill="white"/>
<path d="M5.70131 5.72V1.98C3.66631 2.40166 2.33715 3.75833 1.95215 5.83H5.71965C5.71048 5.79333 5.70131 5.75666 5.70131 5.72Z" fill="white"/>
<path d="M14.8683 1.83333H11.6875V5.83H14.8683V1.83333Z" fill="white"/>
<path d="M16.2344 5.83001H20.0477C19.6627 3.74001 18.3152 2.37417 16.2435 1.97084V5.80251C16.2435 5.81167 16.2344 5.82084 16.2344 5.83001Z" fill="white"/>
<path d="M16.2432 20.0292C18.2507 19.635 19.5707 18.3517 20.0015 16.3717H16.2432V20.0292Z" fill="white"/>
<path d="M14.8683 16.3717H11.6875V20.1667H14.8683V16.3717Z" fill="white"/>
<path d="M11.6875 14.9967H20.1575C20.1667 14.9508 20.1667 14.8958 20.1667 14.8408V7.205H11.6875V14.9967Z" fill="white"/>
<path d="M10.313 16.3717H7.07715V20.1667H10.313V16.3717Z" fill="white"/>
<path d="M1.99805 16.3717C2.42888 18.3333 3.73055 19.6167 5.70138 20.02V16.3717H1.99805Z" fill="white"/>
</svg>
